<svg width="2400" height="1600" viewBox="0 0 2400 1600" fill="none" xmlns="http://www.w3.org/2000/svg">
<g clip-path="url(#clip0_119_36)">
<rect width="2400" height="1600" fill="url(#paint0_linear_119_36)"/>
<circle cx="2210.5" cy="825.5" r="7" fill="#A06BD6" stroke="#A06BD6"/>
<circle cx="1711" cy="-166" r="348.5" stroke="#FFCC63" stroke-width="3"/>
<g clip-path="url(#clip1_119_36)">
<circle cx="68" cy="63" r="94" stroke="#A06BD6" stroke-width="2"/>
<circle cx="37" cy="76" r="107" stroke="#55C0CF" stroke-width="2"/>
<circle cx="2297.5" cy="301.5" r="15" fill="#FFCC63" stroke="#FFCC63"/>
<circle cx="2303" cy="298" r="17" stroke="#FD6157" stroke-width="2"/>
<circle cx="2379" cy="396" r="30" stroke="#66BC8C" stroke-width="2"/>
<circle cx="324" cy="40" r="9" stroke="#ED4C86" stroke-width="2"/>
<circle cx="153.5" cy="161.5" r="8.5" fill="#A06BD6"/>
</g>
<g clip-path="url(#clip2_119_36)">
<path d="M293.2 1317.8C292.503 1325.91 287.71 1332.62 279.953 1335.67C250.408 1345.78 216.244 1336.54 188.617 1353.54C178.158 1362.17 193.672 1377.68 186.525 1388.32C178.681 1402.44 162.209 1403.75 147.742 1402.87C104.688 1401.22 19.5397 1400 -24.9083 1398.78C-26.0413 1398.78 -27 1399.65 -27 1400.78V1401.39C-27 1402.53 -26.1285 1403.4 -24.9955 1403.4C9.86573 1403.22 85.4274 1405.23 118.72 1406.19C144.343 1406.36 186.264 1415.95 193.584 1381.87C194.805 1384.74 194.02 1387.97 194.63 1390.93C196.722 1401.57 182.777 1405.92 174.585 1406.88C157.242 1408.71 139.811 1410.72 122.467 1411.59C100.331 1410.72 78.1066 1411.5 55.9697 1410.54C43.4196 1411.24 -8.52355 1411.76 -24.8212 1411.15C-25.9542 1411.07 -26.9129 1412.03 -26.9129 1413.16V1420.22C-26.9129 1421.27 -26.1285 1422.14 -25.1698 1422.22C-10.5281 1423.97 40.4565 1424.4 51.4377 1422.22C58.41 1421 65.3822 1419.44 72.5288 1420.22C92.3125 1423.62 112.358 1426.06 131.706 1418.91C163.604 1406.88 202.997 1423.01 206.57 1375.33C210.492 1359.55 235.766 1364.26 248.142 1363.48C282.742 1362.17 329.195 1370.8 339.74 1327.04C369.023 1329.4 397.523 1331.57 425.15 1342.03C438.833 1348.05 456.874 1354.41 461.319 1370.19C462.8 1375.85 461.319 1379.34 456.089 1381.69C444.237 1386.84 432.297 1391.63 419.659 1394.42C383.491 1406.1 344.969 1404.09 307.668 1409.67C268.449 1413.86 244.22 1430.51 221.735 1462.15C212.845 1476.53 195.502 1481.93 179.553 1483.24C161.425 1484.63 143.123 1484.81 124.908 1485.77C89.3493 1486.55 12.3932 1486.73 -24.734 1486.2C-25.867 1486.2 -26.8257 1487.07 -26.8257 1488.21C-26.8257 1489.25 -25.9542 1490.21 -24.9083 1490.21C6.37961 1492.04 78.0194 1489.78 107.651 1490.91C127.174 1491.43 146.609 1491.08 166.044 1489.6C178.681 1489.17 191.231 1488.21 203.171 1483.67C232.106 1472.78 234.895 1433.38 282.742 1420.05C311.067 1411.24 341.222 1411.94 370.505 1408.63C399.091 1405.14 427.155 1398.86 453.649 1387.36C453.911 1387.79 453.823 1387.62 454.085 1388.06C401.357 1426.5 331.112 1416.38 272.022 1438.18C237.771 1447.76 258.513 1487.16 224.088 1496.31C205.699 1500.76 186.786 1498.06 168.136 1498.58C141.903 1497.1 115.67 1497.01 89.2622 1497.36C68.084 1498.67 3.32926 1496.92 -17.8489 1498.06C-20.1149 1498.23 -22.3809 1498.14 -24.5597 1497.97C-25.7799 1497.88 -26.8257 1498.75 -26.8257 1499.97V1502.42C-26.8257 1503.46 -26.0413 1504.33 -24.9955 1504.42C-1.98708 1506.77 60.2402 1509.74 80.9826 1507.73C109.83 1502.24 137.981 1514.97 166.48 1509.65C174.672 1508.17 182.777 1506.08 191.057 1504.86C206.832 1502.07 224.088 1503.64 238.032 1494.4C249.188 1487.07 249.798 1473.65 255.899 1463.19C266.27 1444.63 290.237 1447.76 308.365 1445.5C332.332 1443.23 356.125 1439.31 380.179 1437.65C415.737 1435.21 457.135 1432.86 478.749 1399.91C488.772 1402.44 498.969 1400.87 508.294 1405.23C518.578 1408.8 528.426 1413.33 537.752 1418.83C545.596 1423.97 546.903 1435.47 538.013 1440.27C526.945 1450.03 518.84 1454.56 529.908 1468.77C536.183 1482.02 596.754 1495.09 587.255 1507.82C574.007 1522.2 522.413 1509.39 503.413 1507.73C482.497 1504.07 461.144 1503.55 440.228 1499.71C425.76 1497.36 411.293 1495.79 396.651 1497.8C375.473 1500.24 354.12 1509.3 344.882 1529.78C340.089 1536.06 340.612 1544.86 333.116 1548.87C324.663 1555.67 314.901 1559.94 304.443 1562.38C297.122 1565.52 289.366 1566.65 281.522 1567.26C269.059 1567.26 256.945 1570.4 244.395 1570.4C223.129 1571.71 201.777 1574.76 180.599 1572.49C126.738 1571.01 30.1724 1572.15 -24.734 1569.1C-25.867 1569.01 -26.9129 1569.97 -26.9129 1571.1V1572.58C-26.9129 1573.72 -25.9542 1574.67 -24.8212 1574.59C13.0033 1573.89 91.2667 1576.33 127.522 1576.07C143.994 1576.24 160.553 1576.94 177.025 1576.68C180.076 1576.59 182.429 1578.42 185.043 1578.51C219.382 1579.64 253.371 1573.89 287.535 1571.97C308.103 1567.53 334.075 1562.3 344.795 1542.25C351.157 1518.37 371.289 1504.59 395.256 1502.42C420.879 1499.1 446.328 1505.64 471.777 1508.34C485.896 1509.91 500.014 1511.39 513.959 1514.1C532.523 1516.54 583.681 1527 592.397 1506.77C598.933 1512.18 590.567 1519.67 584.64 1521.77C571.044 1526.56 557.797 1528.39 544.375 1525.86C505.854 1518.71 469.511 1511.04 430.728 1506.34C405.105 1506.77 363.01 1503.2 360.482 1538.15C358.652 1555.15 351.941 1575.72 333.378 1580.34C317.603 1584.44 301.044 1582.43 285.008 1583.74C271.325 1585.31 257.555 1585.13 243.959 1583.83C220.34 1581.39 196.983 1585.57 173.452 1583.13C122.032 1581.73 27.645 1583.39 -24.8212 1580.51C-25.9542 1580.43 -27 1581.39 -27 1582.52V1589.84C-27 1590.97 -26.1285 1591.85 -24.9955 1591.85C57.0155 1592.63 279.081 1610.24 351.244 1591.15C379.918 1582 404.059 1563.17 431.948 1552.62C474.391 1539.72 520.583 1563.78 561.632 1542.77C670.486 1491.96 511.954 1485.94 531.738 1451.95C542.371 1442.88 556.664 1431.99 543.417 1417.95C530.257 1407.93 513.959 1401.31 497.836 1397.82C483.978 1394.94 469.337 1395.73 455.741 1391.98C459.837 1386.92 467.158 1383.09 466.635 1375.94C466.112 1366.96 463.585 1358.77 455.654 1353.45C410.508 1322.51 350.286 1322.33 297.558 1320.33C300.26 1261.32 101.202 1281.98 58.2357 1276.4C44.9013 1275.53 -8.2621 1274.39 -24.9955 1274.31C-26.1285 1274.31 -27 1275.18 -27 1276.31V1334.19C-27 1335.24 -26.1285 1336.19 -25.0826 1336.19C99.982 1343.17 89.0878 1290.87 188.094 1285.2C200.469 1285.03 213.02 1284.16 225.395 1285.55C232.978 1286.86 240.56 1288.95 248.142 1289.39C260.605 1290.87 272.545 1295.14 283.178 1301.24C287.448 1305.16 293.462 1312.75 293.2 1317.8Z" fill="#C6A6E6"/>
</g>
<g clip-path="url(#clip3_119_36)">
<path d="M2120.96 1181.41C2119.81 1185.77 2118.02 1187.18 2113.54 1186.66C2110.85 1186.41 2109.44 1183.21 2110.98 1181.03C2114.31 1176.42 2115.59 1175.91 2118.92 1177.45C2120.58 1178.09 2121.35 1179.75 2120.96 1181.41ZM2064.23 1415.69C2042.97 1338.88 2100.6 1270.9 2107.77 1196.52C2107.9 1194.86 2109.18 1193.58 2110.72 1193.32C2113.79 1192.81 2116.48 1192.3 2119.3 1191.91C2121.73 1191.53 2123.91 1193.7 2123.4 1196.14C2122.25 1202.28 2120.96 1208.3 2120.45 1214.32C2115.71 1249.52 2097.02 1280.63 2085.87 1314.04C2077.04 1336.58 2066.92 1360.39 2072.3 1385.1C2075.37 1397.77 2077.81 1410.83 2083.57 1422.73C2083.57 1422.86 2083.7 1422.86 2083.7 1422.99C2088.82 1431.95 2089.59 1441.68 2091.25 1451.54C2091.76 1454.87 2087.92 1457.04 2085.36 1454.87C2074.86 1445.27 2067.94 1427.98 2064.23 1415.69ZM2026.45 1332.74C2032.21 1333.38 2030.16 1340.42 2027.09 1343.36C2026.71 1343.23 2026.45 1343.1 2026.06 1342.98C2025.81 1342.85 2025.42 1342.59 2025.17 1342.34C2021.84 1339.52 2021.71 1332.99 2026.45 1332.74ZM2019.53 1347.2C2020.81 1348.23 2022.22 1349.38 2023.63 1350.53C2024.91 1351.55 2025.3 1353.35 2024.66 1354.88C2018.51 1367.43 2011.98 1381.13 2006.85 1394.19C2006.85 1394.31 2006.73 1394.44 2006.73 1394.57C2002.76 1408.78 2002.88 1424.27 1999.94 1438.74C1999.94 1438.99 1999.81 1439.38 1999.81 1439.63C2000.07 1441.68 2001.09 1443.99 1997.76 1444.75C1974.07 1445.65 2002.24 1366.4 2014.28 1347.84C2015.56 1346.18 2018 1345.92 2019.53 1347.2ZM1958.06 1366.28C1961.01 1364.87 1963.95 1364.48 1967.28 1365C1969.07 1365.25 1970.23 1366.79 1970.35 1368.45C1970.48 1373.06 1969.71 1378.18 1964.08 1378.44C1959.08 1379.08 1958.06 1374.73 1956.39 1370.89C1955.75 1369.09 1956.39 1367.04 1958.06 1366.28ZM2269.14 1166.56C2271.45 1165.67 2273.5 1165.54 2274.65 1167.33C2275.42 1168.61 2275.42 1170.92 2274.78 1172.33C2273.37 1175.27 2271.32 1174.63 2269.14 1173.99C2267.73 1173.61 2266.71 1172.45 2266.58 1171.05C2266.2 1169.25 2266.45 1167.59 2269.14 1166.56ZM2268.63 1180.13C2269.78 1180.26 2270.68 1180.39 2271.7 1180.52C2273.62 1180.77 2275.03 1182.57 2274.78 1184.49C2269.65 1229.81 2238.15 1276.02 2195.37 1293.05C2193.58 1293.82 2191.53 1292.92 2190.76 1291.13C2188.46 1285.75 2186.66 1279.22 2193.45 1277.43C2200.11 1277.3 2204.08 1272.57 2208.95 1269.49C2209.08 1269.49 2209.08 1269.37 2209.21 1269.37C2237.51 1248.37 2255.05 1216.11 2264.79 1182.82C2265.3 1180.9 2266.84 1179.88 2268.63 1180.13ZM2213.56 1108.83C2213.82 1108.7 2214.2 1108.7 2214.46 1108.7C2216.25 1108.7 2217.4 1109.21 2218.17 1109.85C2218.43 1110.11 2218.55 1110.36 2218.68 1110.62C2218.68 1110.75 2218.81 1110.88 2218.81 1110.88C2219.32 1112.67 2218.3 1115.23 2216.12 1117.4C2215.86 1117.66 2215.61 1117.92 2215.35 1118.04C2215.1 1118.3 2214.84 1118.43 2214.58 1118.68C2214.33 1118.94 2213.94 1119.07 2213.69 1119.2C2213.18 1119.45 2212.66 1119.71 2212.15 1119.84C2211.89 1119.97 2211.51 1120.09 2211.13 1120.22C2209.72 1120.73 2208.05 1120.86 2206.39 1120.61C2203.95 1120.35 2202.55 1117.66 2203.57 1115.48C2205.49 1111.39 2209.33 1109.85 2213.56 1108.83ZM2119.81 1591.59H2101.88C2099.96 1591.59 2098.3 1590.06 2098.3 1588.14C2097.66 1560.36 2101.88 1532.96 2104.06 1505.31C2106.62 1463.83 2115.07 1423.37 2128.78 1384.07C2144.53 1343.75 2166.56 1305.72 2179.11 1264.24C2194.48 1221.23 2199.09 1175.14 2202.93 1129.95C2203.06 1128.29 2204.34 1127.01 2205.88 1126.75C2209.33 1126.24 2212.66 1125.6 2216.12 1125.09C2218.43 1124.7 2220.48 1126.62 2220.22 1128.93C2217.4 1165.8 2212.66 1202.67 2207.41 1239.28C2204.08 1258.74 2174.5 1272.82 2184.87 1293.82C2186.28 1297.79 2187.31 1299.19 2190.51 1299.71C2192.68 1300.09 2193.84 1302.39 2193.2 1304.44C2187.56 1320.83 2174.75 1334.02 2167.33 1349.63C2155.29 1372.42 2145.94 1396.87 2137.74 1421.2C2130.7 1445.39 2129.67 1471 2126.73 1495.83C2123.78 1526.56 2121.35 1556.9 2123.27 1587.75C2123.53 1589.8 2121.86 1591.59 2119.81 1591.59ZM2268.25 1432.08C2268.5 1431.82 2268.63 1431.44 2269.01 1431.18C2269.27 1430.93 2269.65 1430.67 2270.04 1430.42C2270.17 1430.29 2270.42 1430.16 2270.55 1430.16C2271.06 1429.9 2271.7 1429.65 2272.47 1429.52C2275.16 1428.88 2278.62 1429.26 2280.92 1430.54C2282.59 1431.44 2283.23 1433.36 2282.46 1435.02C2280.16 1441.17 2272.86 1442.45 2269.4 1438.48C2268.89 1437.84 2268.37 1437.2 2268.12 1436.3C2267.99 1435.92 2267.86 1435.41 2267.73 1434.9C2267.48 1433.87 2267.73 1432.98 2268.25 1432.08ZM2209.97 1504.92C2232 1476.25 2226.88 1461.4 2258.38 1439.89C2259.79 1438.99 2261.59 1439.12 2262.74 1440.14C2264.28 1441.42 2265.68 1442.7 2267.09 1443.99C2268.89 1445.52 2268.63 1448.21 2266.71 1449.62C2234.43 1472.15 2222.91 1493.02 2219.07 1533.34C2219.07 1533.47 2219.07 1533.73 2219.07 1533.86C2219.96 1552.16 2215.48 1568.81 2212.92 1586.86C2212.66 1588.65 2211.13 1589.93 2209.33 1589.93H2196.27C2194.35 1589.93 2192.81 1588.52 2192.68 1586.6C2191.66 1565.48 2198.7 1518.62 2209.97 1504.92ZM2291.94 1273.21C2295.14 1272.57 2298.21 1272.57 2301.16 1273.59C2303.08 1274.23 2303.85 1276.41 2303.21 1278.2C2301.29 1283.06 2297.45 1284.73 2290.91 1283.19C2288.86 1282.68 2287.58 1280.63 2288.22 1278.58C2288.61 1277.56 2288.86 1276.53 2289.25 1275.51C2289.63 1274.36 2290.66 1273.46 2291.94 1273.21ZM2213.05 1414.8C2167.71 1474.45 2179.11 1519.52 2171.17 1586.22C2170.91 1588.01 2169.5 1589.29 2167.84 1589.42C2163.23 1589.67 2158.36 1589.8 2153.11 1590.06C2151.06 1590.18 2149.27 1588.52 2149.4 1586.47C2150.42 1518.62 2155.93 1443.73 2203.44 1391.24C2231.11 1358.98 2265.56 1331.33 2281.18 1290.74C2281.82 1289.08 2283.49 1288.18 2285.28 1288.44C2288.61 1289.08 2291.81 1289.85 2295.14 1290.49C2297.32 1291 2298.6 1293.3 2297.7 1295.35C2285.92 1323.01 2263.51 1369.22 2233.54 1374.34C2210.49 1377.93 2223.29 1400.84 2213.05 1414.8ZM2285.28 1394.06C2275.29 1401.61 2263.38 1402.12 2251.47 1400.46C2251.21 1400.46 2251.08 1400.46 2250.83 1400.46C2240.58 1400.97 2232.77 1401.61 2225.21 1394.7C2224.45 1393.93 2223.93 1392.9 2224.06 1391.88C2224.32 1383.05 2232.26 1378.18 2239.56 1380.23C2239.81 1380.36 2240.07 1380.36 2240.2 1380.49C2254.8 1388.04 2270.04 1383.69 2285.41 1380.49C2287.58 1380.1 2289.51 1381.51 2289.76 1383.69C2289.89 1388.04 2290.53 1391.75 2285.28 1394.06ZM2304.36 1382.41C2304.11 1382.66 2303.85 1382.79 2303.59 1382.92C2303.34 1383.05 2303.08 1383.18 2302.82 1383.18C2298.98 1384.33 2296.55 1379.08 2299.88 1376.77C2300.13 1376.65 2300.26 1376.52 2300.52 1376.39C2303.34 1374.73 2307.05 1377.54 2305.77 1380.62C2305.51 1381.13 2305.26 1381.64 2304.87 1382.02C2304.62 1382.15 2304.49 1382.28 2304.36 1382.41ZM2311.28 1371.27C2305.64 1362.44 2297.7 1370.37 2290.66 1372.68C2280.28 1375.49 2270.42 1378.95 2259.66 1378.82C2256.72 1378.82 2255.05 1375.37 2256.85 1373.06C2275.55 1349.63 2295.14 1326.33 2304.62 1297.4C2304.62 1297.15 2304.75 1297.02 2304.75 1296.76C2305.9 1288.31 2316.66 1273.33 2307.18 1267.96C2306.92 1267.83 2306.79 1267.7 2306.54 1267.7C2299.49 1265.14 2289.25 1263.73 2284 1270.39C2283.87 1270.52 2283.74 1270.65 2283.74 1270.77C2278.49 1279.22 2273.37 1287.67 2270.42 1297.27C2270.42 1297.4 2270.29 1297.53 2270.29 1297.66C2258.9 1323.77 2237.38 1342.98 2219.19 1364.1C2206.52 1378.95 2191.02 1391.75 2180.9 1408.52C2175.52 1418.38 2170.66 1428.62 2166.17 1438.99C2145.68 1485.59 2144.4 1537.18 2143.89 1587.24C2143.89 1589.16 2142.22 1590.82 2140.3 1590.82H2133C2131.21 1590.82 2129.67 1589.42 2129.42 1587.62C2126.34 1558.95 2131.34 1530.14 2132.49 1501.47C2132.49 1501.34 2132.49 1501.34 2132.49 1501.21C2136.59 1469.46 2136.85 1436.3 2150.55 1406.86C2150.55 1406.73 2150.68 1406.73 2150.68 1406.6C2156.7 1390.47 2162.59 1374.21 2170.91 1359.11C2180.52 1338.24 2197.68 1320.96 2202.93 1298.3C2203.19 1297.27 2203.83 1296.38 2204.72 1295.87C2241.48 1276.41 2268.63 1241.58 2279.77 1201.64C2279.77 1201.39 2279.9 1201.13 2279.9 1201C2280.67 1189.1 2287.58 1176.04 2280.8 1165.03C2274.91 1154.02 2260.31 1160.8 2259.66 1170.66C2258.38 1178.85 2257.62 1187.43 2254.41 1194.86C2244.94 1215.72 2235.84 1237.49 2218.55 1253.23C2216.12 1255.41 2212.15 1253.49 2212.53 1250.16C2214.71 1231.09 2217.66 1213.04 2220.35 1193.96C2220.35 1193.83 2220.35 1193.83 2220.35 1193.7C2222.14 1171.69 2223.04 1149.54 2226.11 1127.65C2226.88 1121.89 2224.45 1116.51 2225.73 1110.75C2226.11 1108.57 2225.21 1105.37 2221.63 1103.58C2212.66 1099.1 2199.22 1104.6 2197.42 1114.46C2196.14 1121.37 2196.27 1128.67 2195.76 1135.71C2191.79 1181.29 2186.28 1227.5 2169.76 1270.52C2151.06 1325.82 2120.07 1376.52 2106.75 1433.49C2106.11 1436.3 2102.52 1437.2 2100.6 1435.02C2093.43 1426.96 2087.28 1418.51 2084.72 1407.76C2079.6 1386.76 2074.35 1364.87 2082.16 1343.87C2096.76 1294.59 2125.06 1249.14 2129.16 1197.16C2129.16 1196.91 2129.16 1196.78 2129.29 1196.52C2132.75 1183.34 2127.88 1188.33 2128.01 1180.39C2127.75 1171.69 2122.5 1167.97 2114.05 1170.79C2106.62 1173.35 2100.86 1180.52 2099.06 1187.94C2098.42 1190.5 2098.81 1193.19 2099.58 1195.75C2103.29 1207.92 2091.89 1235.7 2089.08 1247.86C2089.08 1247.99 2089.08 1248.11 2088.95 1248.24C2072.94 1294.71 2049.76 1340.67 2053.6 1391.24C2056.29 1422.22 2068.46 1452.18 2094.97 1470.1C2099.06 1473.05 2100.99 1476.5 2100.22 1481.88C2096.12 1517.21 2091.76 1552.29 2092.92 1588.01C2093.05 1590.06 2091.38 1591.72 2089.33 1591.72H2072.17C2070.12 1591.72 2068.46 1590.06 2068.58 1588.01C2069.48 1565.35 2073.45 1542.95 2065.13 1521.18C2053.6 1490.71 2031.96 1465.36 2010.31 1441.68C2010.18 1441.42 2009.93 1441.3 2009.8 1441.04C2004.81 1432.46 2010.7 1418.64 2010.7 1408.78C2010.7 1408.65 2010.7 1408.52 2010.7 1408.4C2012.11 1398.15 2014.41 1388.17 2019.79 1379.21C2019.79 1379.08 2019.92 1379.08 2019.92 1378.95C2027.99 1367.68 2052.83 1316.09 2021.07 1327.1C2020.43 1327.36 2019.92 1327.61 2019.53 1328.13C2003.27 1346.43 1995.58 1369.22 1989.69 1392.52C1988.8 1396.23 1983.29 1396.11 1982.65 1392.26C1980.86 1380.49 1981.24 1367.17 1973.04 1359.75C1972.79 1359.49 1972.53 1359.36 1972.28 1359.24C1963.57 1354.5 1952.42 1358.98 1948.33 1368.2C1947.81 1369.22 1947.94 1370.5 1948.45 1371.4C1954.73 1382.02 1953.96 1395.08 1956.14 1406.99C1956.14 1407.12 1956.14 1407.24 1956.27 1407.37C1961.77 1425.55 1962.67 1447.7 1978.17 1460.63C1988.54 1468.69 1996.86 1478.29 2004.29 1488.79C2022.48 1510.56 2024.53 1575.97 2024.02 1595.69C2024.02 1597.74 2025.55 1599.4 2027.6 1599.4L2218.3 1596.2C2220.09 1596.2 2221.63 1594.79 2221.76 1592.87C2222.4 1585.7 2223.68 1568.29 2223.93 1561.12C2223.93 1561 2223.93 1561 2223.93 1560.87C2226.62 1533.98 2225.21 1504.67 2241.35 1481.5C2251.21 1468.69 2262.87 1457.17 2277.47 1449.62C2283.49 1446.55 2286.18 1441.3 2288.61 1435.66C2288.74 1435.54 2288.74 1435.28 2288.74 1435.15C2293.22 1419.53 2266.07 1419.02 2259.02 1428.62C2242.76 1445.91 2220.99 1458.45 2209.08 1479.83C2189.74 1511.58 2190.38 1550.5 2186.54 1586.6C2186.41 1588.26 2185 1589.54 2183.33 1589.8C2182.57 1589.93 2181.8 1589.93 2180.9 1590.06C2178.72 1590.31 2176.8 1588.65 2176.93 1586.47C2177.19 1575.59 2179.11 1565.22 2179.62 1554.47C2181.93 1525.28 2180.26 1495.07 2191.53 1467.41C2199.34 1446.42 2211.51 1427.98 2224.06 1409.68C2225.34 1407.76 2228.03 1405.58 2229.95 1405.58C2244.55 1405.07 2259.92 1408.27 2274.39 1406.22C2274.65 1406.22 2274.91 1406.09 2275.16 1406.09C2287.58 1401.87 2298.34 1394.44 2309.1 1387.14C2313.97 1383.94 2313.97 1374.98 2311.28 1371.27ZM2059.88 1592.62H2034.65C2032.6 1592.62 2031.06 1590.95 2031.06 1589.03C2031.32 1565.48 2030.29 1543.07 2028.5 1519.77C2028.24 1516.19 2026.45 1512.6 2024.78 1509.4C1995.71 1447.31 1968.31 1469.59 1959.98 1388.17C1959.85 1386.38 1960.88 1384.84 1962.67 1384.33C1964.98 1383.69 1967.28 1383.05 1969.71 1382.54C1971.63 1382.02 1973.68 1383.18 1974.07 1385.22C1978.68 1405.84 1975.73 1461.91 2003.52 1448.98C2004.93 1448.34 2006.73 1448.72 2007.75 1449.87C2051.93 1501.21 2068.97 1519.01 2063.46 1589.42C2063.21 1591.21 2061.67 1592.62 2059.88 1592.62Z" fill="#55C0CF"/>
</g>
<circle cx="191" cy="790" r="28" fill="#55C0CF"/>
<circle cx="1591" cy="1465" r="26.5" stroke="#ED4C86" stroke-width="3"/>
<circle cx="2103" cy="571" r="28" fill="#A06BD6"/>
</g>
<defs>
<linearGradient id="paint0_linear_119_36" x1="1200" y1="0" x2="1200" y2="1600" gradientUnits="userSpaceOnUse">
<stop offset="0.492851" stop-color="#493272"/>
<stop offset="1" stop-color="#A06BD6"/>
</linearGradient>
<clipPath id="clip0_119_36">
<rect width="2400" height="1600" fill="white"/>
</clipPath>
<clipPath id="clip1_119_36">
<rect width="2394" height="1197" fill="white"/>
</clipPath>
<clipPath id="clip2_119_36">
<rect width="629" height="348" fill="white" transform="translate(-27 1252)"/>
</clipPath>
<clipPath id="clip3_119_36">
<rect width="365" height="498" fill="white" transform="translate(1948 1102)"/>
</clipPath>
</defs>
</svg>
